<svg width="512" height="512" viewBox="0 0 512 512" fill="none" xmlns="http://www.w3.org/2000/svg">
<circle cx="256" cy="256" r="256" fill="white"/>
<path d="M230.187 330.83C214.199 330.83 196.99 328.161 178.56 322.824C172.121 320.823 165.792 318.599 159.575 316.153C153.357 313.707 147.14 311.149 140.922 308.481C132.928 314.485 123.158 319.489 111.612 323.491C100.065 327.494 89.0733 329.495 78.6369 329.495C65.0918 329.495 55.2105 326.493 48.9931 320.489C42.9977 314.485 40 307.814 40 300.475C40 292.915 42.9977 285.91 48.9931 279.461C54.9885 273.012 63.2044 269.787 73.6408 269.787C82.0787 269.787 90.7387 271.9 99.6208 276.125C108.503 280.35 116.83 284.242 124.602 287.8C126.822 288.912 129.154 290.024 131.596 291.136C134.039 292.247 136.481 293.359 138.924 294.471C146.252 288.022 154.134 279.461 162.572 268.787C171.01 258.113 179.781 246.327 188.885 233.429C197.989 220.531 207.205 207.411 216.531 194.068C226.079 180.726 235.627 167.939 245.175 155.708C254.724 143.477 264.272 132.803 273.82 123.686C267.158 121.017 260.053 119.016 252.503 117.682C244.953 116.125 236.848 115.347 228.188 115.347C204.873 115.347 184.666 117.682 167.568 122.352C150.693 126.799 136.481 132.692 124.935 140.031C113.61 147.369 104.617 155.263 97.9554 163.714C91.5159 171.942 87.0749 179.725 84.6323 187.063C83.7441 189.954 83.0779 192.623 82.6338 195.069C82.1897 197.293 81.9677 199.516 81.9677 201.74C81.9677 209.301 84.2992 214.972 88.9623 218.752C93.6254 222.532 99.6208 224.423 106.948 224.423C114.498 224.423 122.936 222.31 132.262 218.085C141.588 213.86 151.137 207.3 160.907 198.404C170.677 189.287 179.67 177.39 187.886 162.713C188.996 160.712 190.662 159.711 192.882 159.711C194.659 159.711 196.102 160.267 197.212 161.379C198.545 162.268 199.211 163.603 199.211 165.382C199.211 166.493 198.878 167.605 198.212 168.717C189.329 184.284 179.448 197.07 168.568 207.077C157.909 217.084 147.14 224.534 136.259 229.426C125.601 234.096 115.608 236.431 106.282 236.431C95.8459 236.431 87.1859 233.54 80.3023 227.758C73.4187 221.754 69.9769 213.304 69.9769 202.407C69.9769 196.403 71.0872 190.065 73.3077 183.394C76.1944 174.277 81.3015 165.048 88.6292 155.708C96.179 146.368 106.171 137.807 118.606 130.024C131.263 122.018 146.585 115.569 164.571 110.677C182.779 105.785 203.985 103.338 228.188 103.338C238.847 103.338 248.728 104.339 257.832 106.341C267.158 108.342 275.707 111.122 283.479 114.68C290.141 108.898 296.691 104.339 303.131 101.003C309.792 97.6678 316.121 96 322.116 96C324.115 96 325.558 96.6671 326.446 98.0014C327.334 99.1133 327.778 100.448 327.778 102.004C327.778 103.561 327.334 105.006 326.446 106.341C325.558 107.452 324.115 108.008 322.116 108.008C315.011 108.008 305.906 112.233 294.804 120.684C312.346 131.358 325.447 145.59 334.107 163.38C342.989 181.17 347.43 199.516 347.43 218.418C347.43 235.986 343.877 252.553 336.772 268.12C328.556 286.577 315.122 301.587 296.469 313.151C277.817 324.937 255.723 330.83 230.187 330.83ZM182.224 311.483C198.878 316.375 214.754 318.821 229.854 318.821C253.613 318.821 273.709 313.596 290.141 303.144C306.795 292.47 318.785 279.016 326.113 262.782C332.553 248.773 335.772 233.985 335.772 218.418C335.772 200.851 331.553 183.95 323.115 167.716C314.677 151.261 302.021 138.363 285.145 129.023C278.261 135.027 271.266 142.143 264.161 150.371C257.277 158.599 250.505 167.494 243.843 177.056C238.958 184.172 232.74 193.179 225.191 204.075C217.641 214.749 209.536 226.202 200.876 238.432C192.216 250.441 183.445 261.893 174.563 272.789C165.903 283.686 158.02 292.692 150.915 299.808C156.022 302.032 161.129 304.145 166.236 306.146C171.565 308.147 176.895 309.926 182.224 311.483ZM51.9908 300.142C51.9908 304.367 53.9892 308.259 57.9862 311.817C62.2051 315.597 68.9777 317.487 78.3038 317.487C86.2977 317.487 94.8467 316.153 103.951 313.484C113.055 310.816 121.16 307.258 128.265 302.81C122.936 300.364 117.607 297.918 112.278 295.472C106.948 293.026 101.508 290.58 95.9569 288.133C92.6261 286.577 89.7395 285.354 87.2969 284.464C84.8544 283.352 82.7449 282.685 80.9685 282.463C79.8582 282.018 78.7479 281.796 77.6377 281.796C76.5274 281.796 75.4172 281.796 74.3069 281.796C67.4233 281.796 61.9831 283.797 57.9862 287.8C53.9892 291.58 51.9908 295.694 51.9908 300.142Z" fill="black"/>
<path d="M270.156 416C260.164 416 250.949 414.11 242.511 410.329C234.073 406.771 227.3 400.99 222.193 392.984C217.086 384.978 214.532 374.638 214.532 361.962C214.532 357.737 214.754 353.29 215.198 348.62C215.865 343.95 216.864 339.058 218.196 333.943C221.083 322.602 227.078 310.038 236.182 296.25C229.743 291.58 224.969 286.354 221.86 280.573C218.973 274.568 217.53 268.453 217.53 262.227C217.53 253.776 219.973 245.326 224.858 236.876C229.743 228.203 236.737 220.309 245.842 213.192C254.946 206.076 265.715 200.406 278.15 196.181C290.807 191.733 304.685 189.509 319.785 189.509C325.336 189.509 331.109 189.843 337.105 190.51C349.762 192.067 361.419 196.181 372.078 202.852C382.736 209.301 391.285 218.085 397.725 229.204C404.164 240.322 407.384 253.554 407.384 268.898C407.384 273.79 407.051 278.571 406.385 283.241C417.487 279.238 427.813 274.457 437.361 268.898C446.909 263.338 455.014 257.001 461.675 249.885C463.23 248.328 464.895 247.55 466.671 247.55C468.448 247.55 469.891 248.217 471.001 249.551C472.334 250.663 473 251.997 473 253.554C473 255.333 472.334 256.89 471.001 258.224C462.786 266.896 452.793 274.568 441.025 281.24C429.256 287.689 416.821 293.137 403.72 297.584C399.501 313.818 392.506 329.607 382.736 344.951C373.188 360.295 361.641 373.86 348.096 385.646C337.216 394.985 324.781 402.324 310.792 407.661C296.802 413.22 283.257 416 270.156 416ZM310.792 244.214C301.909 248.217 292.25 254.555 281.814 263.227C271.377 271.678 261.94 281.462 253.502 292.581C259.72 295.472 267.38 297.807 276.485 299.586C285.589 301.142 296.247 301.921 308.46 301.921C319.563 301.921 332.553 300.809 347.43 298.585C362.529 296.361 377.629 292.915 392.728 288.245C394.061 280.906 394.727 273.901 394.727 267.23C394.727 250.774 390.064 236.542 380.738 224.534C371.634 212.303 356.645 204.965 335.772 202.518C330.443 201.851 325.225 201.518 320.118 201.518C307.017 201.518 294.915 203.297 283.812 206.855C272.932 210.413 263.384 215.194 255.168 221.198C247.174 226.98 240.956 233.429 236.515 240.545C232.074 247.439 229.854 254.443 229.854 261.559C229.854 266.007 230.853 270.343 232.852 274.568C235.072 278.794 238.403 282.685 242.844 286.243C250.838 275.792 260.053 265.896 270.489 256.556C280.926 247.216 292.139 239.655 304.13 233.874C316.121 228.092 328.445 225.201 341.102 225.201C347.541 225.201 353.536 225.979 359.088 227.536C361.308 228.203 363.307 229.315 365.083 230.871C367.082 232.428 368.303 234.429 368.747 236.876C368.969 237.543 369.08 238.21 369.08 238.877C369.302 239.322 369.413 239.878 369.413 240.545C369.413 244.548 368.081 246.549 365.416 246.549C363.418 246.549 361.419 244.881 359.421 241.546C357.2 237.987 352.315 236.208 344.765 236.208C339.88 236.208 334.329 236.987 328.112 238.543C322.116 239.878 316.343 241.768 310.792 244.214ZM227.522 362.296C227.522 377.195 231.519 387.758 239.513 393.985C247.729 400.434 257.61 403.658 269.157 403.658C277.595 403.658 286.366 402.324 295.47 399.655C304.796 396.987 313.567 393.429 321.783 388.981C330.221 384.311 337.549 379.085 343.766 373.304C354.425 363.297 363.64 352.178 371.412 339.947C379.183 327.494 385.068 314.93 389.065 302.254C376.408 305.59 363.751 308.259 351.094 310.26C338.659 312.039 327.112 313.04 316.454 313.262C300.91 313.707 287.365 312.928 275.818 310.927C264.272 308.926 254.502 306.035 246.508 302.254C242.955 307.814 239.735 313.484 236.848 319.266C234.184 325.048 232.185 330.941 230.853 336.945C228.633 346.063 227.522 354.513 227.522 362.296Z" fill="black"/>
</svg>
